<mxfile host="app.diagrams.net" modified="2023-05-11T08:26:29.110Z" agent="Mozilla/5.0 (Macintosh; Intel Mac OS X 10_15_7) AppleWebKit/537.36 (KHTML, like Gecko) Chrome/112.0.0.0 Safari/537.36" etag="La62MbTSod66EW28NFTs" version="21.2.9" type="github">
  <diagram name="第 1 页" id="WPkZKOuHeWqzHiWO8U-f">
    <mxGraphModel dx="731" dy="419" grid="0" gridSize="10" guides="1" tooltips="1" connect="1" arrows="1" fold="1" page="0" pageScale="1" pageWidth="827" pageHeight="1169" math="0" shadow="0">
      <root>
        <mxCell id="0" />
        <mxCell id="1" parent="0" />
      </root>
    </mxGraphModel>
  </diagram>
</mxfile>
